<svg width="654" height="666" viewBox="0 0 654 666" fill="none" xmlns="http://www.w3.org/2000/svg">
<path fill-rule="evenodd" clip-rule="evenodd" d="M368.204 122.757C410.244 144.407 417.778 199.306 446.513 236.862C474.043 272.844 516.469 295.349 532.64 337.671C553.364 391.912 580.927 457.843 549.633 506.755C518.355 555.641 445.966 550.706 389.059 562.083C342.177 571.455 295.444 579.024 249.22 566.813C202.868 554.568 154.559 534.449 129.571 493.533C105.611 454.298 127.718 404.844 122.417 359.177C116.563 308.746 77.9285 259.848 96.9833 212.789C116.686 164.131 169.5 136.398 219.321 119.86C267.613 103.829 322.968 99.4603 368.204 122.757Z" fill="#E5F2FF"/>
<path opacity="0.7" fill-rule="evenodd" clip-rule="evenodd" d="M162.075 201.242C199.473 177.185 247.726 196.862 291.822 191.119C334.07 185.617 372.346 161.647 414.416 168.378C468.335 177.004 534.989 185.557 560.108 234.04C585.214 282.498 547.158 339.132 529.666 390.826C515.256 433.413 499.446 475.032 467.767 506.935C436.001 538.926 396.901 568.809 351.83 569.92C308.611 570.986 278.731 529.729 239.048 512.574C195.225 493.629 137.236 502.101 107.871 464.456C77.5078 425.532 79.7548 369.48 89.7115 321.13C99.3626 274.264 121.833 227.129 162.075 201.242Z" fill="#3454F5"/>
<path fill-rule="evenodd" clip-rule="evenodd" d="M456.792 211.786C455.783 211.786 454.966 210.968 454.966 209.959V205.432H450.519C449.467 205.432 448.613 204.579 448.613 203.526C448.613 202.473 449.467 201.62 450.519 201.62H454.966V197.093C454.966 196.084 455.783 195.267 456.792 195.267C457.801 195.267 458.619 196.084 458.619 197.093V201.62H463.226C464.279 201.62 465.132 202.473 465.132 203.526C465.132 204.579 464.279 205.432 463.226 205.432H458.619V209.959C458.619 210.968 457.801 211.786 456.792 211.786Z" fill="#3454F5"/>
<path fill-rule="evenodd" clip-rule="evenodd" d="M108.859 412.08C107.85 412.08 107.032 411.262 107.032 410.253V405.726H102.586C101.533 405.726 100.68 404.873 100.68 403.82C100.68 402.767 101.533 401.914 102.586 401.914H107.032V397.387C107.032 396.378 107.85 395.561 108.859 395.561C109.867 395.561 110.685 396.378 110.685 397.387V401.914H115.293C116.345 401.914 117.199 402.767 117.199 403.82C117.199 404.873 116.345 405.726 115.293 405.726H110.685V410.253C110.685 411.262 109.867 412.08 108.859 412.08Z" fill="#3454F5"/>
<path fill-rule="evenodd" clip-rule="evenodd" d="M327.761 498.805C327.131 498.805 326.619 498.294 326.619 497.663V494.834H323.842C323.184 494.834 322.65 494.3 322.65 493.642C322.65 492.984 323.184 492.451 323.842 492.451L326.619 492.451V489.622C326.619 488.991 327.131 488.48 327.761 488.48C328.392 488.48 328.903 488.991 328.903 489.622V492.451L331.784 492.451C332.441 492.451 332.975 492.984 332.975 493.642C332.975 494.3 332.441 494.834 331.784 494.834H328.903V497.663C328.903 498.294 328.392 498.805 327.761 498.805Z" fill="#FFE818"/>
<path fill-rule="evenodd" clip-rule="evenodd" d="M301.216 42.5165C300.928 42.2285 300.928 41.7615 301.216 41.4735L303.824 38.8654L301.218 36.2596C300.93 35.9716 300.93 35.5047 301.218 35.2167C301.506 34.9287 301.973 34.9287 302.261 35.2167L304.867 37.8225L307.474 35.216C307.762 34.928 308.228 34.928 308.516 35.216C308.804 35.504 308.804 35.9709 308.516 36.2589L305.91 38.8654L308.519 41.4743C308.807 41.7623 308.807 42.2292 308.519 42.5172C308.231 42.8052 307.764 42.8052 307.476 42.5172L304.867 39.9083L302.259 42.5165C301.971 42.8045 301.504 42.8045 301.216 42.5165Z" fill="#3454F5"/>
<path fill-rule="evenodd" clip-rule="evenodd" d="M133.617 566.006C132.836 565.225 132.836 563.958 133.617 563.177L141.012 555.782L133.615 548.385C132.834 547.604 132.834 546.338 133.615 545.557L136.072 543.099C136.853 542.318 138.119 542.318 138.9 543.099L146.297 550.496L153.694 543.1C154.475 542.319 155.741 542.319 156.522 543.1L158.76 545.337C159.541 546.118 159.541 547.385 158.76 548.166L151.363 555.562L158.978 563.177C159.759 563.958 159.759 565.224 158.978 566.005L156.52 568.462C155.739 569.244 154.473 569.244 153.692 568.462L146.077 560.848L138.682 568.243C137.901 569.024 136.635 569.024 135.854 568.243L133.617 566.006Z" fill="#BFDFFF"/>
<path fill-rule="evenodd" clip-rule="evenodd" d="M471.77 252.568C471.324 252.123 471.324 251.4 471.77 250.954L473.77 248.954L471.804 246.988C471.339 246.523 471.339 245.768 471.804 245.303C472.269 244.838 473.024 244.838 473.489 245.303L475.455 247.269L477.456 245.268C477.902 244.822 478.625 244.822 479.07 245.268C479.516 245.714 479.516 246.437 479.07 246.883L477.069 248.884L479.105 250.919C479.57 251.384 479.57 252.138 479.105 252.604C478.64 253.069 477.885 253.069 477.42 252.604L475.385 250.568L473.384 252.568C472.939 253.014 472.216 253.014 471.77 252.568Z" fill="#3454F5"/>
<path fill-rule="evenodd" clip-rule="evenodd" d="M267.531 150.01C266.506 148.985 266.506 147.322 267.531 146.297L272.133 141.694L267.613 137.174C266.543 136.104 266.543 134.369 267.613 133.299C268.683 132.229 270.418 132.229 271.488 133.299L276.008 137.82L280.609 133.219C281.634 132.194 283.297 132.194 284.322 133.219C285.348 134.245 285.348 135.907 284.322 136.933L279.722 141.533L284.404 146.216C285.474 147.286 285.474 149.02 284.404 150.09C283.334 151.16 281.6 151.16 280.529 150.09L275.847 145.408L271.245 150.01C270.219 151.036 268.557 151.036 267.531 150.01Z" fill="#FFE818"/>
<path fill-rule="evenodd" clip-rule="evenodd" d="M465.096 543.444C463.064 543.444 461.416 541.796 461.416 539.764V530.643H452.454C450.333 530.643 448.613 528.924 448.613 526.803C448.613 524.682 450.333 522.962 452.454 522.962H461.416V513.842C461.416 511.809 463.064 510.162 465.096 510.162C467.129 510.162 468.776 511.809 468.776 513.842V522.962H478.055C480.176 522.962 481.895 524.682 481.895 526.803C481.895 528.924 480.176 530.643 478.055 530.643H468.776V539.764C468.776 541.796 467.129 543.444 465.096 543.444Z" fill="#BFDFFF"/>
<path fill-rule="evenodd" clip-rule="evenodd" d="M246.958 29.0899C245.853 29.0899 244.958 28.1943 244.958 27.0895V22.1321H240.087C238.935 22.1321 238 21.1976 238 20.0448C238 18.892 238.935 17.9575 240.087 17.9575H244.958V13.0003C244.958 11.8956 245.853 11 246.958 11C248.063 11 248.958 11.8956 248.958 13.0003V17.9575H254.003C255.155 17.9575 256.09 18.892 256.09 20.0448C256.09 21.1976 255.155 22.1321 254.003 22.1321H248.958V27.0895C248.958 28.1943 248.063 29.0899 246.958 29.0899Z" fill="#3454F5"/>
<path fill-rule="evenodd" clip-rule="evenodd" d="M450.334 19.1256C449.553 18.3445 449.553 17.0779 450.334 16.2967L453.839 12.791L450.396 9.34725C449.581 8.53211 449.581 7.21051 450.396 6.39537C451.211 5.58023 452.532 5.58023 453.348 6.39537L456.791 9.83915L460.296 6.33416C461.077 5.55299 462.344 5.55299 463.125 6.33416C463.906 7.11534 463.906 8.38187 463.125 9.16304L459.62 12.668L463.187 16.235C464.002 17.0501 464.002 18.3717 463.187 19.1868C462.372 20.002 461.05 20.002 460.235 19.1868L456.668 15.6199L453.163 19.1256C452.381 19.9068 451.115 19.9068 450.334 19.1256Z" fill="#3454F5"/>
<path fill-rule="evenodd" clip-rule="evenodd" d="M426.999 59.3664C426.999 58.5813 427.636 57.9448 428.421 57.9448L431.944 57.9448L431.944 54.4834C431.944 53.6642 432.608 53 433.428 53C434.247 53 434.911 53.6642 434.911 54.4834L434.911 57.9448L438.434 57.9448C439.219 57.9448 439.855 58.5813 439.855 59.3664C439.855 60.1516 439.219 60.788 438.434 60.788L434.911 60.788L434.911 64.3729C434.911 65.1922 434.247 65.8563 433.428 65.8563C432.608 65.8563 431.944 65.1922 431.944 64.3729L431.944 60.788L428.421 60.788C427.636 60.788 426.999 60.1516 426.999 59.3664Z" fill="#3454F5"/>
<path fill-rule="evenodd" clip-rule="evenodd" d="M328.599 98.3062C327.909 98.3062 327.349 97.7464 327.349 97.056V93.9577H324.305C323.584 93.9577 323 93.3737 323 92.6532C323 91.9327 323.584 91.3486 324.305 91.3486H327.349V88.2502C327.349 87.5597 327.909 87 328.599 87C329.29 87 329.85 87.5597 329.85 88.2502V91.3486H333.002C333.722 91.3486 334.306 91.9327 334.306 92.6532C334.306 93.3737 333.722 93.9577 333.002 93.9577H329.85V97.056C329.85 97.7464 329.29 98.3062 328.599 98.3062Z" fill="#FFE818"/>
<path fill-rule="evenodd" clip-rule="evenodd" d="M160.366 37.3608C159.878 36.8726 159.878 36.081 160.366 35.5928L162.556 33.4026L160.404 31.2499C159.894 30.7405 159.894 29.9145 160.404 29.405C160.913 28.8956 161.739 28.8956 162.249 29.405L164.401 31.5577L166.593 29.3662C167.081 28.8779 167.873 28.8779 168.361 29.3662C168.849 29.8544 168.849 30.646 168.361 31.1342L166.169 33.3257L168.398 35.5548C168.908 36.0642 168.908 36.8902 168.398 37.3997C167.889 37.9091 167.063 37.9091 166.553 37.3997L164.324 35.1706L162.134 37.3608C161.646 37.8491 160.854 37.8491 160.366 37.3608Z" fill="#3454F5"/>
<path fill-rule="evenodd" clip-rule="evenodd" d="M524.105 185.494C522.982 184.371 522.982 182.55 524.105 181.427L529.144 176.389L524.193 171.437C523.021 170.266 523.021 168.366 524.193 167.194C525.364 166.022 527.264 166.022 528.436 167.194L533.387 172.146L538.426 167.106C539.549 165.983 541.37 165.983 542.493 167.106C543.616 168.229 543.616 170.05 542.493 171.173L537.454 176.212L542.58 181.339C543.752 182.51 543.752 184.41 542.58 185.582C541.409 186.754 539.509 186.754 538.337 185.582L533.21 180.455L528.172 185.494C527.049 186.617 525.228 186.617 524.105 185.494Z" fill="#FFE818"/>
<g filter="url(#filter0_b)">
<path fill-rule="evenodd" clip-rule="evenodd" d="M183.222 253C180.461 253 178.222 250.761 178.222 248V232.778H163C160.239 232.778 158 230.539 158 227.778V226.222C158 223.461 160.239 221.222 163 221.222H178.222V206C178.222 203.239 180.461 201 183.222 201H184.778C187.539 201 189.778 203.239 189.778 206V221.222H205C207.761 221.222 210 223.461 210 226.222V227.778C210 230.539 207.761 232.778 205 232.778H189.778V248C189.778 250.761 187.539 253 184.778 253H183.222Z" fill="white" fill-opacity="0.3"/>
</g>
<g filter="url(#filter1_b)">
<path fill-rule="evenodd" clip-rule="evenodd" d="M482.222 341C479.461 341 477.222 338.761 477.222 336V320.778H462C459.239 320.778 457 318.539 457 315.778V314.222C457 311.461 459.239 309.222 462 309.222H477.222V294C477.222 291.239 479.461 289 482.222 289H483.778C486.539 289 488.778 291.239 488.778 294V309.222H504C506.761 309.222 509 311.461 509 314.222V315.778C509 318.539 506.761 320.778 504 320.778H488.778V336C488.778 338.761 486.539 341 483.778 341H482.222Z" fill="#3454F5" fill-opacity="0.4"/>
</g>
<defs>
<filter id="filter0_b" x="148" y="191" width="72" height="72" filterUnits="userSpaceOnUse" color-interpolation-filters="sRGB">
<feFlood flood-opacity="0" result="BackgroundImageFix"/>
<feGaussianBlur in="BackgroundImage" stdDeviation="5"/>
<feComposite in2="SourceAlpha" operator="in" result="effect1_backgroundBlur"/>
<feBlend mode="normal" in="SourceGraphic" in2="effect1_backgroundBlur" result="shape"/>
</filter>
<filter id="filter1_b" x="447" y="279" width="72" height="72" filterUnits="userSpaceOnUse" color-interpolation-filters="sRGB">
<feFlood flood-opacity="0" result="BackgroundImageFix"/>
<feGaussianBlur in="BackgroundImage" stdDeviation="5"/>
<feComposite in2="SourceAlpha" operator="in" result="effect1_backgroundBlur"/>
<feBlend mode="normal" in="SourceGraphic" in2="effect1_backgroundBlur" result="shape"/>
</filter>
</defs>
</svg>
