<svg width="237" height="79" viewBox="0 0 237 79" fill="none" xmlns="http://www.w3.org/2000/svg">
<path d="M64.7992 53.7115C62.507 54.0265 60.6285 53.6042 59.1455 52.4474C57.6623 51.2903 56.7777 49.5363 56.4552 47.19C56.1252 44.7896 56.4604 42.8127 57.481 41.2749C58.4835 39.7394 60.0497 38.8253 62.1433 38.5375C64.0925 38.2696 65.7084 38.6544 66.9887 39.6736C68.2689 40.6929 69.0722 42.2559 69.3551 44.3135L69.5882 46.01L59.7701 47.3595C60.0023 48.7804 60.5506 49.8268 61.3792 50.5036C62.2078 51.1806 63.2886 51.4182 64.6242 51.2346C65.4905 51.1155 66.2902 50.9135 67.0259 50.6469C67.7615 50.3804 68.5185 50.0004 69.3326 49.5024L69.6823 52.0471C68.974 52.5123 68.2326 52.8717 67.479 53.1408C66.6842 53.3786 65.8098 53.5726 64.7992 53.7115ZM62.4683 40.9018C61.4757 41.0383 60.7238 41.4543 60.1969 42.1703C59.6882 42.8838 59.4539 43.8539 59.5118 45.078L66.2076 44.1576C66.0232 42.9509 65.608 42.0701 64.9437 41.5179C64.2792 40.9656 63.461 40.7654 62.4683 40.9018Z" fill="black"/>
<path d="M77.1833 51.7513L74.0608 52.1805L71.2104 31.4434L74.3329 31.0142L77.1833 51.7513Z" fill="black"/>
<path d="M90.8795 49.8689L89.965 47.8983L89.8568 47.9132C89.2769 48.9124 88.6394 49.6251 87.962 50.0493C87.2848 50.4733 86.3867 50.7624 85.2496 50.9187C83.8058 51.1171 82.6142 50.8763 81.6953 50.2119C80.7764 49.5476 80.2075 48.4855 80.0115 47.0597C79.8031 45.5436 80.2039 44.3117 81.2367 43.3975C82.2491 42.4675 83.9245 41.8143 86.2248 41.4246L88.7597 41.0026L88.6506 40.2084C88.5216 39.27 88.2083 38.5958 87.6925 38.1886C87.1948 37.7789 86.4768 37.6385 85.5564 37.765C84.7983 37.8692 84.0912 38.0768 83.4352 38.3876C82.7792 38.6984 82.1486 39.0609 81.541 39.4571L80.2227 37.358C80.9598 36.8338 81.7995 36.3873 82.7082 36.0418C83.6349 35.6938 84.5044 35.464 85.3527 35.3474C87.2297 35.0894 88.6946 35.311 89.7628 35.9917C90.8308 36.6724 91.4763 37.8893 91.7169 39.64L93.0814 49.5663L90.8795 49.869L90.8795 49.8689ZM85.9279 48.3612C87.065 48.2049 87.9408 47.7536 88.5398 47.0277C89.1388 46.3016 89.3577 45.352 89.2014 44.2152L89.0253 42.9337L87.1401 43.2664C85.6676 43.524 84.6374 43.923 84.0292 44.448C83.421 44.973 83.1724 45.7059 83.2964 46.6082C83.3857 47.258 83.6562 47.754 84.0848 48.0631C84.5339 48.3873 85.1519 48.4678 85.9279 48.3612Z" fill="black"/>
<path d="M106.815 43.3937C107.014 44.8376 106.642 46.0104 105.699 46.9123C104.759 47.8322 103.313 48.4172 101.346 48.6876C99.3788 48.958 97.7688 48.8849 96.4958 48.4531L96.1237 45.7459C97.9655 46.3019 99.6263 46.4781 101.124 46.2722C103.055 46.0067 103.933 45.2977 103.771 44.1246C103.719 43.7456 103.569 43.4536 103.318 43.2308C103.066 43.0078 102.689 42.8023 102.164 42.5986C101.64 42.3949 100.914 42.2004 100.001 41.9765C98.2148 41.56 96.9679 41.051 96.2831 40.4831C95.5982 39.9152 95.1722 39.0911 95.0283 38.0442C94.8547 36.7809 95.2261 35.7368 96.1581 34.8915C97.0721 34.0488 98.4146 33.5149 100.165 33.2742C101.898 33.0361 103.587 33.1532 105.218 33.6462L104.532 36.1494C102.855 35.718 101.472 35.5587 100.389 35.7076C98.729 35.9358 97.9813 36.5166 98.1103 37.4551C98.1748 37.9245 98.4435 38.2736 98.9212 38.539C99.399 38.8043 100.397 39.1084 101.918 39.4695C103.192 39.7725 104.135 40.0842 104.75 40.4043C105.364 40.7245 105.823 41.121 106.163 41.5892C106.49 42.0961 106.719 42.6898 106.815 43.3937Z" fill="black"/>
<path d="M115.962 44.1041C116.72 43.9999 117.479 43.7669 118.205 43.428L118.53 45.7923C118.207 45.9838 117.773 46.1723 117.246 46.3549C116.72 46.5376 116.147 46.6532 115.57 46.7326C112.61 47.1395 110.896 45.7751 110.467 42.6528L109.375 34.7116L107.372 34.9869L107.183 33.6153L109.193 32.1806L109.829 28.9119L111.742 28.6489L112.193 31.9336L116.398 31.3556L116.723 33.7199L112.518 34.2979L113.602 42.185C113.706 42.943 113.964 43.4777 114.392 43.7865C114.819 44.0773 115.349 44.1885 115.962 44.1041Z" fill="black"/>
<path d="M118.746 27.0427C118.669 26.4832 118.753 26.0302 119.018 25.6812C119.283 25.3322 119.696 25.1283 120.274 25.0489C120.833 24.972 121.268 25.0593 121.617 25.324C121.966 25.5887 122.17 26.0019 122.247 26.5614C122.321 27.1028 122.234 27.5377 121.969 27.8868C121.705 28.2358 121.292 28.4396 120.75 28.5141C120.172 28.5935 119.719 28.5086 119.371 28.244C119.039 27.9769 118.818 27.5661 118.746 27.0427ZM124.629 45.2298L121.507 45.6589L119.482 30.9317L122.605 30.5025L124.629 45.2298Z" fill="black"/>
<path d="M135.079 44.0514C132.841 44.359 131.073 43.9399 129.722 42.8016C128.388 41.661 127.552 39.8633 127.22 37.4448C126.88 34.9722 127.231 32.9748 128.256 31.4729C129.282 29.9712 130.941 29.0628 133.233 28.7478C134.785 28.5344 136.233 28.6296 137.557 29.036L136.966 31.6917C135.577 31.3495 134.441 31.2482 133.575 31.3673C131.03 31.7171 129.982 33.5897 130.446 36.9647C130.674 38.6252 131.167 39.8078 131.913 40.5512C132.659 41.2946 133.654 41.5807 134.882 41.412C136.271 41.221 137.542 40.697 138.69 39.822L139.065 42.5473C138.55 42.949 137.987 43.2654 137.375 43.4968C136.748 43.7483 135.999 43.9249 135.079 44.0514Z" fill="black"/>
<path d="M151.938 37.1915C152.136 38.6355 151.764 39.8082 150.822 40.7101C149.882 41.63 148.436 42.2151 146.468 42.4855C144.501 42.7559 142.891 42.6828 141.618 42.251L141.246 39.5438C143.088 40.0997 144.749 40.2759 146.247 40.07C148.178 39.8046 149.055 39.0955 148.894 37.9225C148.842 37.5435 148.691 37.2515 148.44 37.0287C148.189 36.8056 147.811 36.6001 147.287 36.3964C146.762 36.1928 146.037 35.9982 145.123 35.7744C143.337 35.3578 142.09 34.8488 141.405 34.281C140.721 33.7131 140.295 32.8889 140.151 31.8421C139.977 30.5788 140.349 29.5347 141.281 28.6894C142.195 27.8466 143.537 27.3127 145.288 27.0721C147.02 26.8339 148.71 26.951 150.341 27.444L149.655 29.9473C147.977 29.5159 146.595 29.3566 145.512 29.5054C143.851 29.7336 143.104 30.3145 143.233 31.253C143.297 31.7223 143.566 32.0715 144.044 32.3368C144.522 32.6021 145.52 32.9062 147.04 33.2673C148.314 33.5704 149.258 33.882 149.872 34.2022C150.486 34.5223 150.945 34.9189 151.285 35.387C151.63 35.8915 151.841 36.4876 151.938 37.1915Z" fill="black"/>
<path d="M162.366 40.3003C160.074 40.6154 158.196 40.1931 156.713 39.0362C155.23 37.8792 154.345 36.1251 154.022 33.7789C153.693 31.3785 154.028 29.4015 155.048 27.8637C156.051 26.3283 157.617 25.4142 159.711 25.1264C161.66 24.8585 163.276 25.2432 164.556 26.2625C165.836 27.2818 166.64 28.8448 166.922 30.9024L167.156 32.5989L157.337 33.9484C157.57 35.3693 158.118 36.4157 158.946 37.0925C159.775 37.7694 160.856 38.007 162.191 37.8235C163.058 37.7044 163.857 37.5024 164.593 37.2357C165.329 36.9693 166.086 36.5893 166.9 36.0912L167.25 38.636C166.541 39.1012 165.8 39.4606 165.046 39.7297C164.251 39.9675 163.377 40.1614 162.366 40.3003ZM160.018 27.4932C159.025 27.6296 158.273 28.0456 157.746 28.7617C157.238 29.4752 157.003 30.4453 157.061 31.6693L163.757 30.7489C163.573 29.5423 163.157 28.6615 162.493 28.1092C161.847 27.5545 161.028 27.3543 160.018 27.4932Z" fill="black"/>
<path d="M180.85 37.5022L179.936 35.5316L179.828 35.5465C179.248 36.5457 178.61 37.2584 177.933 37.6826C177.256 38.1066 176.357 38.3957 175.22 38.552C173.777 38.7504 172.585 38.5096 171.666 37.8452C170.747 37.1809 170.178 36.1188 169.982 34.693C169.774 33.1769 170.175 31.945 171.207 31.0308C172.22 30.1009 173.895 29.4476 176.196 29.0579L178.73 28.6359L178.621 27.8417C178.492 26.9033 178.179 26.2291 177.663 25.8219C177.166 25.4122 176.448 25.2718 175.527 25.3983C174.769 25.5025 174.062 25.7101 173.406 26.0209C172.75 26.3317 172.119 26.6942 171.512 27.0904L170.193 24.9913C170.931 24.4671 171.77 24.0207 172.679 23.6751C173.606 23.3271 174.475 23.0973 175.323 22.9807C177.2 22.7227 178.665 22.9443 179.734 23.625C180.802 24.3057 181.447 25.5226 181.688 27.2733L183.052 37.1996L180.85 37.5023L180.85 37.5022ZM175.881 35.9969C177.018 35.8407 177.894 35.3894 178.493 34.6635C179.092 33.9374 179.31 32.9878 179.154 31.851L178.978 30.5695L177.093 30.9022C175.62 31.1598 174.59 31.5588 173.982 32.0838C173.374 32.6088 173.125 33.3417 173.249 34.244C173.338 34.8938 173.609 35.3898 174.038 35.6989C174.487 36.023 175.105 36.1036 175.881 35.9969Z" fill="black"/>
<path d="M192.863 20.5511C193.495 20.4642 194.023 20.4283 194.433 20.464L194.528 23.4299C194.062 23.3837 193.603 23.3916 193.116 23.4585C191.87 23.6297 190.899 24.1862 190.234 25.1051C189.57 26.0239 189.319 27.1433 189.498 28.4428L190.557 36.1494L187.435 36.5785L185.411 21.8512L187.865 21.5138L188.637 24.0556L188.8 24.0333C189.166 23.082 189.703 22.3093 190.425 21.6767C191.15 21.0624 191.961 20.6751 192.863 20.5511Z" fill="black"/>
<path d="M205.195 34.4137C202.957 34.7213 201.189 34.3022 199.838 33.1639C198.504 32.0233 197.668 30.2257 197.336 27.8071C196.996 25.3345 197.347 23.3371 198.372 21.8352C199.398 20.3335 201.057 19.4251 203.349 19.1101C204.901 18.8967 206.349 18.9919 207.673 19.3983L207.082 22.054C205.693 21.7118 204.557 21.6105 203.691 21.7296C201.146 22.0793 200.098 23.952 200.562 27.327C200.79 28.9875 201.283 30.1701 202.029 30.9135C202.775 31.6569 203.77 31.943 204.998 31.7743C206.387 31.5833 207.658 31.0593 208.806 30.1843L209.181 32.9096C208.666 33.3113 208.103 33.6277 207.491 33.8591C206.864 34.1106 206.098 34.2896 205.195 34.4137Z" fill="black"/>
<path d="M225.682 31.3397L222.541 31.7714L221.296 22.7113C221.14 21.5742 220.789 20.7582 220.26 20.2608C219.732 19.7633 218.953 19.5763 217.96 19.7127C216.642 19.8938 215.741 20.4224 215.215 21.2853C214.711 22.1637 214.585 23.5233 214.838 25.3643L215.843 32.6738L212.721 33.103L209.873 12.3838L212.995 11.9546L213.72 17.2247C213.836 18.0729 213.906 18.9827 213.929 19.9542L214.128 19.9269C214.464 19.1635 214.965 18.5246 215.686 18.0209C216.39 17.5196 217.249 17.2176 218.26 17.0787C221.834 16.5875 223.868 18.1467 224.362 21.7382L225.682 31.3397Z" fill="black"/>
<path d="M33.6728 44.1249L21.7791 45.7598C21.9065 46.0181 22.0159 46.2788 22.1253 46.5397C22.6928 47.8593 23.1391 49.2323 23.4482 50.6793C23.5637 51.2519 23.6817 51.8425 23.7636 52.4381C23.8454 53.0337 23.9092 53.6317 23.9345 54.2168C24.0272 55.6935 23.9679 57.1359 23.7775 58.5598C23.7425 58.8405 23.6895 59.1236 23.6545 59.4041L35.5482 57.7692C39.2842 57.2557 41.8971 53.789 41.399 50.0324C40.8805 46.2603 37.4267 43.6089 33.6728 44.1249Z" fill="#00A9E5"/>
<path d="M23.954 54.2139C23.9107 53.6314 23.865 53.0309 23.7831 52.4352C23.7013 51.8397 23.6013 51.2465 23.4678 50.6765C23.1586 49.2295 22.7124 47.8564 22.1448 46.5368C22.0355 46.276 21.908 46.0178 21.7986 45.7569L3.40757 48.2848C3.03502 50.5243 2.97108 52.8686 3.29855 55.2509C3.626 57.6332 4.30195 59.8758 5.28303 61.9291L23.656 59.4037C23.7091 59.1207 23.744 58.8401 23.779 58.5594C23.9874 57.133 24.0467 55.6907 23.954 54.2139Z" fill="#353535"/>
<path d="M37.9386 59.7572L23.1392 61.7914C22.8269 62.8641 22.4555 63.9081 22.0069 64.926C21.3317 66.4349 20.4995 67.8732 19.5057 69.2051C19.1814 69.6541 18.8339 70.0698 18.489 70.5034C17.776 71.3369 17.0015 72.1238 16.163 72.8459C20.0795 74.7165 24.566 75.5157 29.1862 74.8806C37.0733 73.7965 43.4686 68.8167 46.709 62.1559C44.3151 60.2598 41.1872 59.3106 37.9386 59.7572Z" fill="#00BFB3"/>
<path d="M21.9859 64.9107C22.4368 63.9108 22.8264 62.8643 23.1182 61.7762L6.45975 64.0659C8.7841 67.8655 12.1817 70.9106 16.1574 72.81C16.996 72.0879 17.7705 71.3009 18.4834 70.4674C18.8489 70.0495 19.1758 69.6184 19.5002 69.1692C20.4785 67.8578 21.3131 66.4376 21.9859 64.9107Z" fill="#019B8F"/>
<path d="M15.1416 37.4588C14.7081 37.1138 14.2614 36.8074 13.8122 36.4829C12.9008 35.8727 11.9427 35.324 10.9405 34.8549C7.60671 37.7588 5.17476 41.6054 3.9617 45.8913L20.6382 43.5991C20.048 42.6504 19.4088 41.7453 18.7021 40.8861C17.6267 39.6181 16.4399 38.4756 15.1416 37.4588Z" fill="#F9B110"/>
<path d="M22.9314 29.3819C18.3111 30.017 14.2067 31.9971 10.9401 34.855C11.9425 35.3241 12.9005 35.8728 13.8119 36.4831C14.2766 36.787 14.7077 37.1139 15.1412 37.459C16.4396 38.4757 17.6264 39.6182 18.7042 40.9045C19.4083 41.7456 20.0656 42.6481 20.6402 43.6173L35.4397 41.5831C38.6883 41.1366 41.4441 39.3786 43.24 36.925C38.3202 31.3673 30.8185 28.2978 22.9314 29.3819Z" fill="#FED10A"/>
</svg>
