<svg width="233" height="46" viewBox="0 0 233 46" fill="none" xmlns="http://www.w3.org/2000/svg">
<path d="M62.1347 29.8409C59.821 29.8409 58.0175 29.1667 56.7059 27.8187C55.3941 26.4705 54.7565 24.6123 54.7565 22.244C54.7565 19.821 55.3577 17.9081 56.5782 16.5236C57.7805 15.139 59.4566 14.4467 61.5699 14.4467C63.5375 14.4467 65.0859 15.0479 66.2154 16.232C67.3449 17.4161 67.9279 19.074 67.9279 21.1509V22.8633H58.0175C58.054 24.3026 58.4547 25.4139 59.1834 26.1972C59.9121 26.9807 60.9506 27.3633 62.2986 27.3633C63.1731 27.3633 63.9929 27.2721 64.758 27.1081C65.5231 26.9442 66.3248 26.6709 67.1991 26.2883V28.857C66.434 29.2215 65.6506 29.4765 64.8673 29.6405C64.0475 29.7679 63.1549 29.8409 62.1347 29.8409ZM61.5699 16.8332C60.568 16.8332 59.7664 17.143 59.147 17.7806C58.5458 18.4182 58.1816 19.3473 58.0722 20.5678H64.831C64.8127 19.3473 64.5213 18.4182 63.9383 17.7806C63.3552 17.143 62.572 16.8332 61.5699 16.8332Z" fill="black"/>
<path d="M74.6703 29.5855H71.5185V8.65344H74.6703V29.5855Z" fill="black"/>
<path d="M88.4954 29.5856L87.8577 27.5088H87.7485C87.038 28.4198 86.3093 29.039 85.5805 29.367C84.8518 29.6948 83.9228 29.8589 82.775 29.8589C81.3176 29.8589 80.1699 29.4581 79.35 28.6748C78.5302 27.8915 78.1111 26.7618 78.1111 25.3227C78.1111 23.7923 78.6759 22.6264 79.8236 21.8614C80.9532 21.0779 82.702 20.6589 85.0339 20.5861L87.6027 20.5132V19.7116C87.6027 18.7643 87.3841 18.0537 86.9286 17.5801C86.4913 17.1065 85.7991 16.8696 84.87 16.8696C84.1049 16.8696 83.3761 16.9789 82.6838 17.1975C81.9916 17.4161 81.3176 17.6894 80.6617 17.9992L79.6415 15.7401C80.4431 15.3211 81.3358 14.9932 82.2831 14.7746C83.2485 14.556 84.1412 14.4468 84.9975 14.4468C86.8921 14.4468 88.3132 14.8658 89.2787 15.6856C90.2441 16.5054 90.7179 17.7989 90.7179 19.566V29.5857H88.4954V29.5856ZM83.7952 27.4176C84.943 27.4176 85.8721 27.0898 86.5644 26.4522C87.2566 25.8145 87.6028 24.9036 87.6028 23.756V22.4625L85.6899 22.5354C84.196 22.5901 83.1211 22.8451 82.447 23.2823C81.773 23.7197 81.4269 24.4118 81.4269 25.3227C81.4269 25.9786 81.6273 26.5068 82.0098 26.8713C82.4106 27.2536 83.0119 27.4176 83.7952 27.4176Z" fill="black"/>
<path d="M105.164 25.3408C105.164 26.7983 104.636 27.9095 103.58 28.6746C102.523 29.4579 101.011 29.8407 99.0252 29.8407C97.0395 29.8407 95.4545 29.549 94.2521 28.9479V26.2152C96.0011 27.0168 97.6225 27.4175 99.1345 27.4175C101.084 27.4175 102.049 26.8345 102.049 25.6504C102.049 25.2679 101.94 24.9581 101.721 24.7032C101.503 24.448 101.157 24.193 100.665 23.9197C100.173 23.6466 99.4806 23.355 98.6063 23.0089C96.8938 22.353 95.7278 21.6789 95.1267 21.0231C94.5255 20.3672 94.2158 19.4928 94.2158 18.4361C94.2158 17.1609 94.7259 16.1771 95.7643 15.4666C96.7845 14.7562 98.1872 14.41 99.9544 14.41C101.703 14.41 103.361 14.7562 104.91 15.4666L103.889 17.8532C102.286 17.1974 100.938 16.8512 99.8451 16.8512C98.169 16.8512 97.3492 17.3248 97.3492 18.2722C97.3492 18.7459 97.5679 19.1284 98.005 19.4563C98.4422 19.7842 99.3895 20.2214 100.847 20.7863C102.068 21.2599 102.96 21.6972 103.525 22.098C104.09 22.4988 104.49 22.9541 104.764 23.4642C105.019 24.011 105.164 24.6303 105.164 25.3408Z" fill="black"/>
<path d="M114.13 27.2904C114.895 27.2904 115.678 27.1628 116.443 26.926V29.3125C116.097 29.4582 115.642 29.5858 115.095 29.6951C114.549 29.8043 113.966 29.8409 113.383 29.8409C110.395 29.8409 108.883 28.2559 108.883 25.1042V17.0883H106.861V15.7038L109.047 14.5561L110.122 11.4044H112.053V14.72H116.298V17.1065H112.053V25.0678C112.053 25.8329 112.235 26.3977 112.617 26.762C113 27.1081 113.51 27.2904 114.13 27.2904Z" fill="black"/>
<path d="M119.21 10.7667C119.21 10.2019 119.356 9.76464 119.666 9.45496C119.975 9.14528 120.413 8.99951 120.996 8.99951C121.56 8.99951 121.979 9.14528 122.289 9.45496C122.599 9.76473 122.745 10.2019 122.745 10.7667C122.745 11.3131 122.599 11.7322 122.289 12.0419C121.979 12.3516 121.542 12.4973 120.996 12.4973C120.413 12.4973 119.975 12.3515 119.666 12.0419C119.374 11.7322 119.21 11.295 119.21 10.7667ZM122.562 29.5855H119.411V14.7198H122.562V29.5855Z" fill="black"/>
<path d="M133.075 29.8408C130.816 29.8408 129.122 29.1849 127.938 27.8731C126.772 26.5615 126.189 24.6669 126.189 22.2256C126.189 19.7297 126.809 17.7987 128.029 16.4505C129.25 15.1024 131.017 14.4283 133.33 14.4283C134.897 14.4283 136.318 14.7198 137.575 15.3027L136.628 17.8533C135.298 17.325 134.187 17.07 133.312 17.07C130.744 17.07 129.45 18.7824 129.45 22.1892C129.45 23.8653 129.778 25.1041 130.416 25.9421C131.053 26.7802 132.001 27.1992 133.239 27.1992C134.642 27.1992 135.972 26.853 137.229 26.1426V28.8935C136.664 29.2214 136.063 29.4581 135.426 29.604C134.77 29.7678 134.004 29.8408 133.075 29.8408Z" fill="black"/>
<path d="M150.711 25.3408C150.711 26.7983 150.183 27.9095 149.126 28.6746C148.07 29.4579 146.558 29.8407 144.572 29.8407C142.586 29.8407 141.001 29.549 139.799 28.9479V26.2152C141.548 27.0168 143.169 27.4175 144.681 27.4175C146.631 27.4175 147.596 26.8345 147.596 25.6504C147.596 25.2679 147.487 24.9581 147.268 24.7032C147.05 24.448 146.703 24.193 146.212 23.9197C145.72 23.6466 145.028 23.355 144.153 23.0089C142.44 22.353 141.275 21.6789 140.673 21.0231C140.072 20.3672 139.763 19.4928 139.763 18.4361C139.763 17.1609 140.273 16.1771 141.311 15.4666C142.331 14.7562 143.734 14.41 145.501 14.41C147.25 14.41 148.908 14.7562 150.456 15.4666L149.436 17.8532C147.833 17.1974 146.485 16.8512 145.392 16.8512C143.716 16.8512 142.896 17.3248 142.896 18.2722C142.896 18.7459 143.115 19.1284 143.552 19.4563C143.989 19.7842 144.936 20.2214 146.394 20.7863C147.614 21.2599 148.507 21.6972 149.072 22.098C149.637 22.4988 150.037 22.9541 150.311 23.4642C150.584 24.011 150.711 24.6303 150.711 25.3408Z" fill="black"/>
<path d="M160.619 29.8409C158.306 29.8409 156.502 29.1667 155.191 27.8187C153.879 26.4705 153.241 24.6123 153.241 22.244C153.241 19.821 153.842 17.9081 155.063 16.5236C156.265 15.139 157.941 14.4467 160.055 14.4467C162.022 14.4467 163.571 15.0479 164.7 16.232C165.83 17.4161 166.413 19.074 166.413 21.1509V22.8633H156.502C156.539 24.3026 156.939 25.4139 157.668 26.1972C158.397 26.9807 159.435 27.3633 160.783 27.3633C161.658 27.3633 162.478 27.2721 163.243 27.1081C164.008 26.9442 164.809 26.6709 165.684 26.2883V28.857C164.919 29.2215 164.135 29.4765 163.352 29.6405C162.532 29.7679 161.64 29.8409 160.619 29.8409ZM160.036 16.8332C159.035 16.8332 158.233 17.143 157.614 17.7806C157.012 18.4182 156.648 19.3473 156.539 20.5678H163.297C163.279 19.3473 162.988 18.4182 162.405 17.7806C161.84 17.143 161.057 16.8332 160.036 16.8332Z" fill="black"/>
<path d="M179.312 29.5856L178.675 27.5088H178.565C177.855 28.4198 177.126 29.039 176.397 29.367C175.669 29.6948 174.739 29.8589 173.592 29.8589C172.134 29.8589 170.986 29.4581 170.167 28.6748C169.347 27.8915 168.928 26.7618 168.928 25.3227C168.928 23.7923 169.493 22.6264 170.64 21.8614C171.77 21.0779 173.519 20.6589 175.851 20.5861L178.419 20.5132V19.7116C178.419 18.7643 178.201 18.0537 177.745 17.5801C177.308 17.1065 176.616 16.8696 175.687 16.8696C174.922 16.8696 174.193 16.9789 173.501 17.1975C172.808 17.4161 172.134 17.6894 171.478 17.9992L170.458 15.7401C171.26 15.3211 172.152 14.9932 173.1 14.7746C174.065 14.556 174.958 14.4468 175.814 14.4468C177.709 14.4468 179.13 14.8658 180.095 15.6856C181.061 16.5054 181.535 17.7989 181.535 19.566V29.5857H179.312V29.5856ZM174.594 27.4176C175.741 27.4176 176.671 27.0898 177.363 26.4522C178.055 25.8145 178.401 24.9036 178.401 23.756V22.4625L176.488 22.5354C174.995 22.5901 173.92 22.8451 173.246 23.2823C172.572 23.7197 172.225 24.4118 172.225 25.3227C172.225 25.9786 172.426 26.5068 172.808 26.8713C173.209 27.2536 173.81 27.4176 174.594 27.4176Z" fill="black"/>
<path d="M193.521 14.4285C194.159 14.4285 194.687 14.4648 195.088 14.5559L194.778 17.5072C194.323 17.3979 193.868 17.3433 193.376 17.3433C192.119 17.3433 191.08 17.7623 190.297 18.5821C189.514 19.4019 189.113 20.4767 189.113 21.7884V29.5675H185.961V14.7016H188.439L188.858 17.3249H189.022C189.514 16.4323 190.151 15.74 190.953 15.2117C191.754 14.7017 192.611 14.4285 193.521 14.4285Z" fill="black"/>
<path d="M203.851 29.8408C201.592 29.8408 199.897 29.1849 198.713 27.8731C197.547 26.5615 196.964 24.6669 196.964 22.2256C196.964 19.7297 197.584 17.7987 198.804 16.4505C200.025 15.1024 201.792 14.4283 204.106 14.4283C205.672 14.4283 207.093 14.7198 208.35 15.3027L207.403 17.8533C206.073 17.325 204.962 17.07 204.088 17.07C201.519 17.07 200.225 18.7824 200.225 22.1892C200.225 23.8653 200.553 25.1041 201.191 25.9421C201.828 26.7802 202.776 27.1992 204.015 27.1992C205.417 27.1992 206.747 26.853 208.004 26.1426V28.8935C207.44 29.2214 206.838 29.4581 206.201 29.604C205.545 29.7678 204.762 29.8408 203.851 29.8408Z" fill="black"/>
<path d="M224.565 29.5855H221.395V20.4403C221.395 19.2925 221.158 18.4363 220.703 17.8716C220.248 17.3068 219.501 17.0154 218.499 17.0154C217.169 17.0154 216.203 17.4162 215.566 18.1995C214.946 19.0011 214.636 20.3309 214.636 22.1892V29.5674H211.485V8.65344H214.636V13.973C214.636 14.8293 214.582 15.7401 214.473 16.7057H214.673C215.11 15.9952 215.693 15.4304 216.477 15.0296C217.242 14.6288 218.134 14.4467 219.155 14.4467C222.762 14.4467 224.565 16.2685 224.565 19.8938V29.5855Z" fill="black"/>
<path d="M32.6038 16.1046H20.5982C20.6893 16.3779 20.7621 16.6511 20.835 16.9244C21.2176 18.309 21.4727 19.73 21.582 21.2057C21.6184 21.7886 21.6548 22.3898 21.6548 22.991C21.6548 23.5922 21.6366 24.1933 21.582 24.7764C21.4727 26.252 21.2176 27.6728 20.835 29.0575C20.7621 29.3308 20.6711 29.6041 20.5982 29.8772H32.6038C36.3749 29.8772 39.4355 26.7986 39.4536 23.0092C39.4536 19.2016 36.3931 16.1046 32.6038 16.1046Z" fill="#00A9E5"/>
<path d="M21.6017 24.7764C21.6381 24.1933 21.6746 23.5922 21.6746 22.991C21.6746 22.3898 21.6564 21.7886 21.6017 21.2057C21.4924 19.7301 21.2373 18.309 20.8548 16.9244C20.782 16.6511 20.6909 16.3779 20.618 16.1046H2.05401C1.37998 18.2725 0.997406 20.5862 0.997406 22.991C0.997406 25.3956 1.36167 27.7094 2.05401 29.8772H20.5998C20.6909 29.6041 20.7637 29.3308 20.8366 29.0575C21.2373 27.6728 21.4924 26.252 21.6017 24.7764Z" fill="#353535"/>
<path d="M34.7012 32.1727H19.7625C19.3071 33.1929 18.7971 34.1766 18.214 35.1239C17.3396 36.5268 16.3193 37.8384 15.1534 39.0226C14.7709 39.4233 14.3701 39.7877 13.9693 40.1704C13.1495 40.899 12.2751 41.5731 11.346 42.1742C14.9714 44.5608 19.3072 45.9635 23.9709 45.9635C31.9321 45.9635 38.946 41.9009 43.0632 35.7434C40.9498 33.539 37.9803 32.1727 34.7012 32.1727Z" fill="#00BFB3"/>
<path d="M18.1952 35.1057C18.7781 34.1765 19.3066 33.1928 19.7438 32.1545H2.92877C4.71407 36.2352 7.66539 39.7147 11.3454 42.1377C12.2745 41.5366 13.1489 40.8624 13.9687 40.1337C14.3877 39.7694 14.7703 39.3869 15.1528 38.9861C16.3006 37.8201 17.3208 36.5268 18.1952 35.1057Z" fill="#019B8F"/>
<path d="M15.1529 6.97757C14.7704 6.57678 14.3696 6.21243 13.9689 5.82977C13.149 5.10107 12.2746 4.42704 11.3455 3.82581C7.64738 6.24878 4.71428 9.72835 2.92889 13.8092H19.7622C19.3067 12.7889 18.7967 11.8052 18.2136 10.8578C17.3209 9.4552 16.3007 8.16172 15.1529 6.97757Z" fill="#F9B110"/>
<path d="M23.9701 0.0366211C19.3064 0.0366211 14.9705 1.43943 11.3452 3.82587C12.2743 4.4271 13.1487 5.10114 13.9685 5.82984C14.3875 6.19419 14.7701 6.57676 15.1526 6.97763C16.3004 8.1617 17.3205 9.45518 18.2131 10.8762C18.7961 11.8054 19.3245 12.789 19.7617 13.8275H34.7004C37.9795 13.8275 40.949 12.4612 43.0623 10.275C38.9452 4.09911 31.9313 0.0366211 23.9701 0.0366211Z" fill="#FED10A"/>
</svg>
