<svg width="12" height="12" viewBox="0 0 12 12" fill="none" xmlns="http://www.w3.org/2000/svg">
<path fill-rule="evenodd" clip-rule="evenodd" d="M0.500323 11.4238C-0.166775 10.7567 -0.166774 9.67514 0.500323 9.00805L3.49454 6.01383L0.553992 3.07329C-0.14211 2.37719 -0.142109 1.24858 0.553992 0.552482C1.25009 -0.14362 2.3787 -0.14362 3.0748 0.552482L6.01534 3.49303L9.00805 0.500323C9.67514 -0.166774 10.7567 -0.166774 11.4238 0.500323C12.0909 1.16742 12.0909 2.249 11.4238 2.9161L8.43112 5.9088L11.4775 8.95517C12.1736 9.65127 12.1736 10.7799 11.4775 11.476C10.7814 12.1721 9.65278 12.1721 8.95668 11.476L5.91031 8.42961L2.9161 11.4238C2.249 12.0909 1.16742 12.0909 0.500323 11.4238Z" fill="#3454F5"/>
</svg>
