<svg width="621" height="582" viewBox="0 0 621 582" fill="none" xmlns="http://www.w3.org/2000/svg">
<path fill-rule="evenodd" clip-rule="evenodd" d="M350.204 65.7566C392.244 87.4067 399.778 142.306 428.513 179.862C456.043 215.844 498.469 238.349 514.64 280.671C535.364 334.912 562.927 400.843 531.633 449.755C500.355 498.641 427.966 493.706 371.059 505.083C324.177 514.455 277.444 522.024 231.22 509.813C184.868 497.568 136.559 477.449 111.571 436.533C87.6106 397.298 109.718 347.844 104.417 302.177C98.5633 251.746 59.9285 202.848 78.9833 155.789C98.6858 107.131 151.5 79.3978 201.321 62.8596C249.613 46.8289 304.968 42.4603 350.204 65.7566Z" fill="#E5F2FF"/>
</svg>
