<svg width="654" height="653" viewBox="0 0 654 653" fill="none" xmlns="http://www.w3.org/2000/svg">
<path opacity="0.7" fill-rule="evenodd" clip-rule="evenodd" d="M162.075 188.242C199.473 164.185 247.726 183.862 291.822 178.119C334.07 172.617 372.346 148.647 414.416 155.378C468.335 164.004 534.989 172.557 560.108 221.04C585.214 269.498 547.158 326.132 529.666 377.826C515.256 420.413 499.446 462.032 467.767 493.935C436.001 525.926 396.901 555.809 351.83 556.92C308.611 557.986 278.731 516.729 239.048 499.574C195.225 480.629 137.236 489.101 107.871 451.456C77.5078 412.532 79.7548 356.48 89.7115 308.13C99.3626 261.264 121.833 214.129 162.075 188.242Z" fill="#3454F5"/>
</svg>
