<svg width="801" height="751" viewBox="0 0 801 751" fill="none" xmlns="http://www.w3.org/2000/svg">
<path fill-rule="evenodd" clip-rule="evenodd" d="M451.958 84.3657C506.236 112.318 515.964 183.2 553.064 231.689C588.608 278.145 643.385 307.201 664.262 361.843C691.02 431.875 726.607 516.999 686.202 580.149C645.82 643.266 552.357 636.895 478.885 651.583C418.354 663.684 358.017 673.456 298.337 657.69C238.492 641.881 176.119 615.905 143.857 563.078C112.922 512.421 141.465 448.571 134.621 389.61C127.063 324.499 77.1814 261.365 101.783 200.608C127.221 137.784 195.41 101.978 259.734 80.6255C322.084 59.9281 393.554 54.2877 451.958 84.3657Z" fill="#E5F2FF"/>
</svg>
